0.16m3min_grf.mot
version=1
nRows=25
nColumns 19
inDegrees=yes
endheader
time	1_ground_force_vx	1_ground_force_vy	1_ground_force_vz	1_ground_force_px	1_ground_force_py	1_ground_force_pz	1_ground_torque_x	1_ground_torque_y	1_ground_torque_z	2_ground_force_vx	2_ground_force_vy	2_ground_force_vz	2_ground_force_px	2_ground_force_py	2_ground_force_pz	2_ground_torque_x	2_ground_torque_y	2_ground_torque_z
            2.502500	           12.277294	          785.301820	          -53.205267	           -0.232003	            0.006063	           -0.368013	           -0.029287	           -1.873313	            0.126919	          -58.922569	          650.405968	           49.978142	           -0.181699	            0.005642	           -0.645594	           -0.152140	            1.679368	            0.129045
            2.503000	           19.506144	          799.023857	          -57.933514	           -0.232125	            0.006063	           -0.368030	           -0.016913	           -0.692789	            0.050231	          -61.678695	          661.436551	           52.412054	           -0.182052	            0.005643	           -0.646192	           -0.238742	            2.560244	            0.202873
            2.503500	           18.257235	          811.477315	          -61.453868	           -0.232133	            0.006063	           -0.368028	            0.007600	            0.337818	           -0.025583	          -62.272994	          670.632716	           55.026192	           -0.182030	            0.005643	           -0.646394	           -0.245357	            2.642306	            0.216804
            2.504000	            8.485937	          822.840197	          -63.261026	           -0.232067	            0.006062	           -0.367713	            0.002688	            0.260597	           -0.020035	          -61.463992	          680.388114	           57.172422	           -0.181804	            0.005645	           -0.646621	           -0.165646	            1.833650	            0.154080
            2.504500	           -3.480241	          832.931583	          -62.912917	           -0.232243	            0.006060	           -0.367256	            0.003832	           -0.917075	            0.069268	          -60.887802	          689.594701	           58.049722	           -0.182037	            0.005644	           -0.646679	           -0.056574	            0.640738	            0.053937
            2.505000	          -10.541579	          843.745373	          -62.665594	           -0.232228	            0.006058	           -0.366866	            0.031714	           -2.538412	            0.188530	          -62.843916	          699.347984	           57.991507	           -0.181812	            0.005645	           -0.646724	           -0.007949	            0.088459	            0.007335
            2.505500	           -8.484898	          854.929579	          -64.319455	           -0.232306	            0.006058	           -0.366871	            0.033330	           -3.358346	            0.252661	          -66.345845	          708.914998	           56.947802	           -0.181739	            0.005646	           -0.646890	           -0.046396	            0.495745	            0.039824
            2.506000	            0.856262	          867.384493	          -67.728528	           -0.232649	            0.006059	           -0.367035	           -0.002828	           -2.864435	            0.223665	          -70.170506	          717.187263	           57.166696	           -0.181900	            0.005645	           -0.646803	           -0.168376	            1.720906	            0.137173
            2.506500	           11.893485	          878.037803	          -71.332949	           -0.232772	            0.006059	           -0.367107	           -0.014669	           -1.082917	            0.087978	          -71.745086	          725.278380	           58.838747	           -0.181990	            0.005646	           -0.646991	           -0.259379	            2.622089	            0.212719
            2.507000	           17.661742	          889.225554	          -73.683869	           -0.232639	            0.006060	           -0.367177	            0.010982	            0.552912	           -0.045816	          -70.460208	          733.009236	           61.118335	           -0.182099	            0.005646	           -0.647064	           -0.259191	            2.696403	            0.224826
            2.507500	           15.090920	          898.422041	          -74.417638	           -0.232707	            0.006060	           -0.367377	            0.016386	            0.975519	           -0.080804	          -67.771441	          741.294592	           64.290930	           -0.182376	            0.005645	           -0.647236	           -0.171405	            1.874859	            0.162603
            2.508000	            6.242290	          909.775072	          -73.888416	           -0.233001	            0.006058	           -0.366881	           -0.002021	           -0.294548	            0.023922	          -63.726643	          750.142236	           66.057075	           -0.182373	            0.005646	           -0.647478	           -0.052713	            0.620503	            0.054641
            2.508500	           -2.284167	          919.143701	          -73.001660	           -0.233211	            0.006057	           -0.366675	            0.005634	           -2.267238	            0.180072	          -61.837581	          758.987287	           66.369366	           -0.182914	            0.005644	           -0.647579	           -0.003123	            0.038335	            0.003352
            2.509000	           -4.307736	          929.065954	          -74.834230	           -0.233330	            0.006057	           -0.366528	            0.016828	           -3.629269	            0.292330	          -61.957882	          766.352988	           66.348759	           -0.182811	            0.005646	           -0.647834	           -0.031884	            0.394368	            0.034143
            2.509500	            2.192072	          940.257310	          -77.966517	           -0.233431	            0.006056	           -0.366490	           -0.007634	           -3.274296	            0.271506	          -63.106432	          772.980200	           65.856683	           -0.182921	            0.005645	           -0.647629	           -0.129367	            1.584597	            0.135005
            2.510000	           13.275890	          949.287421	          -81.394600	           -0.233500	            0.006058	           -0.366765	           -0.020079	           -1.435750	            0.123105	          -63.320129	          780.343052	           66.540038	           -0.183338	            0.005644	           -0.647863	           -0.203557	            2.508588	            0.213908
            2.510500	           23.767895	          959.932172	          -83.025863	           -0.233540	            0.006057	           -0.366637	            0.016185	            0.653662	           -0.056536	          -61.096287	          787.525098	           68.770336	           -0.183711	            0.005644	           -0.648225	           -0.206615	            2.663245	            0.232567
            2.511000	           27.526431	          968.764177	          -82.584618	           -0.233662	            0.006058	           -0.366955	            0.037612	            1.323732	           -0.112845	          -56.059191	          794.162634	           71.607524	           -0.184006	            0.005643	           -0.648209	           -0.126060	            1.785825	            0.161023
            2.511500	           24.000354	          978.307973	          -80.287939	           -0.233848	            0.006058	           -0.366850	            0.007659	            0.312209	           -0.025622	          -50.413374	          800.805047	           73.693603	           -0.184132	            0.005643	           -0.648322	           -0.034979	            0.555629	            0.051131
            2.512000	           16.576571	          986.771523	          -78.490661	           -0.234302	            0.006057	           -0.366651	           -0.029429	           -1.751866	            0.139349	          -45.941711	          808.181925	           75.219672	           -0.184511	            0.005642	           -0.648633	            0.011308	           -0.198931	           -0.018515
            2.512500	           12.125927	          996.148214	          -79.310697	           -0.234475	            0.006056	           -0.366383	           -0.039266	           -3.225724	            0.256824	          -44.182954	          814.083275	           74.629868	           -0.184728	            0.005641	           -0.648354	           -0.005940	            0.109446	            0.010033
            2.513000	           14.316287	         1005.356707	          -82.670067	           -0.234532	            0.006056	           -0.366484	           -0.043351	           -3.044290	            0.250331	          -44.772792	          821.634499	           73.765420	           -0.185030	            0.005640	           -0.648617	           -0.067290	            1.234843	            0.110863
            2.513500	           23.289475	         1014.569975	          -86.825837	           -0.234523	            0.006056	           -0.366506	           -0.031074	           -1.353685	            0.115847	          -45.353539	          826.788150	           73.924834	           -0.185131	            0.005640	           -0.648539	           -0.122315	            2.229790	            0.199370
            2.514000	           34.375369	         1024.677809	          -89.332165	           -0.234610	            0.006056	           -0.366341	            0.020158	            0.600885	           -0.052386	          -44.533046	          833.232620	           74.979890	           -0.185247	            0.005639	           -0.648492	           -0.130759	            2.446556	            0.220158
            2.514500	           41.892072	         1033.151596	          -89.314495	           -0.234616	            0.006056	           -0.366499	            0.058970	            1.454342	           -0.125726	          -40.944644	          838.762746	           77.062904	           -0.185495	            0.005638	           -0.648353	           -0.078013	            1.598128	            0.146831
